<?xml version="1.0" standalone="no"?>
<!DOCTYPE svg PUBLIC "-//W3C//DTD SVG 20010904//EN"
 "http://www.w3.org/TR/2001/REC-SVG-20010904/DTD/svg10.dtd">
<svg version="1.0" xmlns="http://www.w3.org/2000/svg"
 width="635.000000pt" height="522.000000pt" viewBox="0 0 635.000000 522.000000"
 preserveAspectRatio="xMidYMid meet">

<g transform="translate(0.000000,522.000000) scale(0.100000,-0.100000)"
fill="#000000" stroke="none">
<path d="M2970 5039 c-187 -23 -349 -82 -430 -155 -51 -46 -61 -65 -69 -127
l-6 -49 -289 -110 -290 -109 -111 7 c-211 13 -462 -29 -601 -99 -107 -54 -174
-137 -174 -214 0 -28 -5 -30 -412 -183 -351 -132 -414 -159 -425 -180 -10 -20
-12 -274 -10 -1232 2 -1193 2 -1208 22 -1226 18 -17 2968 -1152 2994 -1152 17
0 2934 1100 2959 1116 l22 14 0 1229 c0 1060 -2 1230 -14 1241 -8 6 -194 80
-413 164 l-398 152 -6 57 c-4 35 -15 70 -30 92 -49 72 -174 138 -338 177 -72
18 -124 21 -315 24 l-228 2 -284 108 -284 109 0 43 c0 87 -54 153 -171 213
-158 79 -465 118 -699 88z m503 -142 c99 -26 202 -74 233 -108 20 -22 22 -63
3 -85 -40 -49 -179 -105 -316 -129 -112 -20 -364 -20 -476 0 -137 24 -276 80
-316 129 -19 22 -17 63 3 85 25 28 122 77 190 96 128 37 197 44 391 41 165 -3
203 -7 288 -29z m-1003 -442 c0 -105 3 -132 20 -164 96 -190 615 -285 1008
-186 108 28 220 77 270 120 59 50 72 89 72 220 0 92 3 115 14 115 8 0 67 -21
133 -46 65 -25 142 -55 172 -66 l54 -20 -79 -38 c-44 -20 -96 -51 -116 -68
-65 -58 -68 -73 -68 -333 0 -229 0 -233 25 -275 151 -257 1007 -290 1274 -48
61 55 71 85 71 219 0 89 3 116 13 113 121 -44 587 -224 587 -228 0 -3 -619
-239 -1375 -524 l-1376 -518 -1392 532 c-766 293 -1393 534 -1395 535 -1 1
129 52 290 113 161 61 301 113 311 117 16 7 17 -2 17 -101 0 -134 11 -174 61
-229 104 -113 335 -179 629 -179 288 1 519 64 626 170 61 61 64 78 64 321 0
199 -2 220 -21 260 -31 64 -102 114 -237 169 -20 8 2 19 150 76 95 36 179 67
186 67 9 1 12 -30 12 -124z m1260 3 l0 -101 -43 -42 c-72 -68 -228 -115 -436
-131 l-91 -7 0 132 0 131 48 0 c135 0 336 41 437 90 33 15 66 29 73 29 9 1 12
-26 12 -101z m-1728 -111 c120 -32 174 -55 221 -97 46 -40 48 -72 7 -110 -162
-152 -710 -182 -989 -54 -62 28 -121 79 -121 105 0 46 94 109 216 145 116 34
213 43 394 40 147 -3 190 -8 272 -29z m2903 -6 c236 -50 347 -138 268 -213
-111 -106 -430 -162 -718 -127 -166 20 -331 81 -376 137 -25 32 -24 44 7 82
53 62 204 117 379 139 112 14 332 5 440 -18z m-2645 -439 c0 -105 -1 -109 -27
-134 -35 -32 -111 -71 -183 -92 -72 -22 -230 -46 -303 -46 l-58 0 3 128 3 127
102 7 c162 11 314 46 409 96 21 12 42 21 47 22 4 0 7 -49 7 -108z m2926 -138
c-21 -31 -144 -90 -241 -114 -74 -19 -290 -42 -307 -33 -5 2 -8 60 -8 128 l0
123 88 7 c171 13 348 54 442 105 l35 18 3 -105 c2 -81 -1 -111 -12 -129z m854
-1218 l0 -1134 -27 -10 c-16 -5 -644 -242 -1397 -526 -752 -284 -1372 -516
-1377 -516 -5 0 -9 483 -9 1133 l0 1133 1393 526 c765 289 1398 526 1405 527
9 1 12 -232 12 -1133z"/>
<path d="M2955 3919 c-164 -24 -325 -84 -400 -150 -69 -61 -75 -85 -75 -327 0
-270 7 -291 127 -368 192 -124 610 -162 922 -83 167 42 296 130 321 218 13 47
13 415 0 462 -32 115 -217 213 -475 248 -89 13 -333 12 -420 0z m350 -110
c131 -13 238 -39 320 -78 66 -31 115 -74 115 -101 0 -50 -99 -114 -232 -149
-126 -34 -231 -44 -397 -38 -221 8 -391 54 -475 127 -53 47 -49 84 18 129 136
92 396 136 651 110z m419 -594 c-42 -65 -259 -134 -466 -150 l-88 -6 0 129 0
128 129 12 c152 15 269 42 366 86 l70 32 3 -103 c2 -83 -1 -108 -14 -128z"/>
</g>
</svg>
